<svg xmlns="http://www.w3.org/2000/svg" viewBox="0 0 512 512" width="512" height="512">
  <!-- Document body -->
  <path d="M128 64h200l100 100v280a20 20 0 0 1-20 20H128a20 20 0 0 1-20-20V84a20 20 0 0 1 20-20z" fill="#0969da"/>
  <!-- Folded corner -->
  <path d="M328 64l100 100h-80a20 20 0 0 1-20-20V64z" fill="#0550b6"/>
  <!-- Text lines -->
  <rect x="168" y="196" width="176" height="8" rx="4" fill="#ffffff" opacity="0.5"/>
  <rect x="168" y="224" width="136" height="8" rx="4" fill="#ffffff" opacity="0.5"/>
  <rect x="168" y="252" width="152" height="8" rx="4" fill="#ffffff" opacity="0.5"/>
  <!-- M for Markdown -->
  <text x="256" y="380" text-anchor="middle" font-family="system-ui,-apple-system,sans-serif" font-weight="700" font-size="180" fill="#ffffff">M</text>
</svg>
